{"title":"War Horse 2011 BDRip 1080p Multilanguage PT-BR","uid":13661199,"size":6787579344,"categoryP":"video","categoryS":"hd___movies","magnet":"?xt=urn:btih:c722692322ecf4f23e285e13f21c66705b3d4d84&amp;dn=War+Horse+2011+BDRip+1080p+Multilanguage+PT-BR&amp;tr=udp%3A%2F%2Ftracker.leechers-paradise.org%3A6969&amp;tr=udp%3A%2F%2Fzer0day.ch%3A1337&amp;tr=udp%3A%2F%2Fopen.demonii.com%3A1337&amp;tr=udp%3A%2F%2Ftracker.coppersurfer.tk%3A6969&amp;tr=udp%3A%2F%2Fexodus.desync.com%3A6969","seeders":1,"leechers":1,"uploader":null,"files":1,"time":1456248089,"description":"Audio: English\r\nLegendas/subtitles: Português, English, French, Bulgarian, Swedish, Norwegian\r\n\r\n\r\nVideo\r\nID                             : 1\r\nFormat                         : AVC\r\nFormat/Info                    : Advanced Video Codec\r\nFormat profile                 :   \r\nFormat settings, CABAC         : Yes\r\nFormat settings, ReFrames      : 4 frames\r\nCodec ID                       : V_MPEG4/ISO/AVC\r\nDuration                       : 2h 26mn\r\nBit rate                       : 5 499 Kbps\r\nWidth                          : 1 920 pixels\r\nHeight                         : 1 080 pixels\r\nDisplay aspect ratio           : 16:9\r\nFrame rate mode                : Constant\r\nFrame rate                     : 23.976 fps\r\nColor space                    : YUV\r\nChroma subsampling             : 4:2:0\r\nBit depth                      : 8 bits\r\nScan type                      : Progressive\r\nBits/(Pixel*Frame)             : 0.111\r\nStream size                    : 5.54 GiB (88%)\r\n\r\nAudio\r\nID                             : 2\r\nFormat                         : AC-3\r\nFormat/Info                    : Audio Coding 3\r\nCodec ID                       : A_AC3\r\nDuration                       : 2h 26mn\r\nBit rate mode                  : Constant\r\nBit rate                       : 640 Kbps\r\nChannel(s)                     : 6 channels\r\nChannel positions              : Front: L C R, Side: L R, LFE\r\nSampling rate                  : 48.0 KHz\r\nBit depth                      : 16 bits\r\nCompression mode               : Lossy\r\nStream size                    : 671 MiB (10%)\r\nLanguage                       : English\r\n\r\n\r\nText #1\r\nID                             : 3\r\nFormat                         : UTF-8\r\nCodec ID                       : S_TEXT/UTF8\r\nCodec ID/Info                  : UTF-8 Plain Text\r\nLanguage                       : Portuguese\r\n\r\nText #2\r\nID                             : 4\r\nFormat                         : PGS\r\nMuxing mode                    : zlib\r\nCodec ID                       : S_HDMV/PGS\r\nCodec ID/Info                  : The same subtitle format used on BDs/HD-DVDs\r\nLanguage                       : English\r\n\r\nText #3\r\nID                             : 5\r\nFormat                         : PGS\r\nMuxing mode                    : zlib\r\nCodec ID                       : S_HDMV/PGS\r\nCodec ID/Info                  : The same subtitle format used on BDs/HD-DVDs\r\nLanguage                       : Bulgarian\r\n\r\nText #4\r\nID                             : 6\r\nFormat                         : PGS\r\nMuxing mode                    : zlib\r\nCodec ID                       : S_HDMV/PGS\r\nCodec ID/Info                  : The same subtitle format used on BDs/HD-DVDs\r\nLanguage                       : French\r\n\r\nText #5\r\nID                             : 7\r\nFormat                         : PGS\r\nMuxing mode                    : zlib\r\nCodec ID                       : S_HDMV/PGS\r\nCodec ID/Info                  : The same subtitle format used on BDs/HD-DVDs\r\nLanguage                       : Swedish\r\n\r\nText #6\r\nID                             : 8\r\nFormat                         : PGS\r\nMuxing mode                    : zlib\r\nCodec ID                       : S_HDMV/PGS\r\nCodec ID/Info                  : The same subtitle format used on BDs/HD-DVDs\r\nLanguage                       : Norwegian","torrent":{"xt":"urn:btih:c722692322ecf4f23e285e13f21c66705b3d4d84","amp;dn":"War+Horse+2011+BDRip+1080p+Multilanguage+PT-BR","amp;tr":["udp%3A%2F%2Ftracker.leechers-paradise.org%3A6969","udp%3A%2F%2Fzer0day.ch%3A1337","udp%3A%2F%2Fopen.demonii.com%3A1337","udp%3A%2F%2Ftracker.coppersurfer.tk%3A6969","udp%3A%2F%2Fexodus.desync.com%3A6969"],"infoHash":"c722692322ecf4f23e285e13f21c66705b3d4d84","infoHashBuffer":{"type":"Buffer","data":[199,34,105,35,34,236,244,242,62,40,94,19,242,28,102,112,91,61,77,132]},"announce":[],"urlList":[]}}